<svg width="74" height="42" viewBox="0 0 74 42" fill="none" xmlns="http://www.w3.org/2000/svg">
<g opacity="0.45">
<path opacity="0.45" fill-rule="evenodd" clip-rule="evenodd" d="M6.1935 3.80438C6.24877 3.47721 6.55805 3.25818 6.88428 3.31516L6.98222 3.33226C7.30846 3.38924 7.52811 3.70066 7.47284 4.02782C7.41757 4.35499 7.10829 4.57403 6.78206 4.51705L6.68412 4.49994C6.35788 4.44296 6.13822 4.13155 6.1935 3.80438ZM10.209 4.5057C10.2643 4.17853 10.5735 3.9595 10.8998 4.01648L11.0956 4.05069C11.4219 4.10767 11.6415 4.41908 11.5863 4.74625C11.531 5.07342 11.2217 5.29245 10.8955 5.23547L10.6996 5.20126C10.3734 5.14428 10.1537 4.83287 10.209 4.5057ZM14.3224 5.22413C14.3777 4.89696 14.687 4.67793 15.0132 4.73491L15.2091 4.76912C15.5353 4.82609 15.755 5.13751 15.6997 5.46468C15.6444 5.79185 15.3351 6.01088 15.0089 5.9539L14.813 5.91969C14.4868 5.86271 14.2671 5.5513 14.3224 5.22413ZM18.4358 5.94255C18.4911 5.61539 18.8004 5.39635 19.1266 5.45333L19.3225 5.48754C19.6487 5.54452 19.8684 5.85593 19.8131 6.1831C19.7578 6.51027 19.4486 6.7293 19.1223 6.67233L18.9265 6.63812C18.6002 6.58114 18.3806 6.26972 18.4358 5.94255ZM22.5493 6.66098C22.6045 6.33381 22.9138 6.11478 23.24 6.17176L23.4359 6.20597C23.7622 6.26295 23.9818 6.57436 23.9265 6.90153C23.8713 7.2287 23.562 7.44773 23.2358 7.39075L23.0399 7.35654C22.7136 7.29956 22.494 6.98815 22.5493 6.66098ZM26.6627 7.37941C26.718 7.05224 27.0272 6.8332 27.3535 6.89018L27.5493 6.92439C27.8756 6.98137 28.0952 7.29279 28.04 7.61995C27.9847 7.94712 27.6754 8.16616 27.3492 8.10918L27.1533 8.07497C26.8271 8.01799 26.6074 7.70658 26.6627 7.37941ZM30.7761 8.09783C30.8314 7.77066 31.1407 7.55163 31.4669 7.60861L31.6628 7.64282C31.989 7.6998 32.2087 8.01121 32.1534 8.33838C32.0981 8.66555 31.7888 8.88458 31.4626 8.8276L31.2667 8.79339C30.9405 8.73641 30.7208 8.425 30.7761 8.09783ZM34.8895 8.81626C34.9448 8.48909 35.2541 8.27006 35.5803 8.32704L35.7762 8.36125C36.1024 8.41822 36.3221 8.72964 36.2668 9.05681C36.2116 9.38398 35.9023 9.60301 35.576 9.54603L35.3802 9.51182C35.0539 9.45484 34.8343 9.14343 34.8895 8.81626ZM39.003 9.53469C39.0582 9.20752 39.3675 8.98848 39.6938 9.04546L39.8896 9.07967C40.2159 9.13665 40.4355 9.44806 40.3803 9.77523C40.325 10.1024 40.0157 10.3214 39.6895 10.2645L39.4936 10.2302C39.1674 10.1733 38.9477 9.86185 39.003 9.53469ZM43.1164 10.2531C43.1717 9.92594 43.4809 9.70691 43.8072 9.76389L43.9051 9.78099C44.2314 9.83797 44.451 10.1494 44.3957 10.4766C44.3405 10.8037 44.0312 11.0228 43.705 10.9658L43.607 10.9487C43.2808 10.8917 43.0611 10.5803 43.1164 10.2531Z" fill="#0B907B"/>
</g>
<g opacity="0.45">
<path opacity="0.45" fill-rule="evenodd" clip-rule="evenodd" d="M6.27251 2.39188C6.2933 2.06042 6.57793 1.80912 6.90825 1.8306L6.98901 1.83585C7.31933 1.85732 7.57026 2.14343 7.54947 2.47489C7.52868 2.80635 7.24405 3.05765 6.91373 3.03617L6.83298 3.03092C6.50265 3.00945 6.25172 2.72334 6.27251 2.39188ZM9.58332 2.60709C9.60411 2.27564 9.88874 2.02434 10.2191 2.04582L10.3806 2.05631C10.7109 2.07779 10.9618 2.3639 10.941 2.69535C10.9202 3.02682 10.6356 3.27811 10.3053 3.25664L10.1438 3.24614C9.81346 3.22467 9.56253 2.93856 9.58332 2.60709ZM12.9749 2.82755C12.9957 2.49611 13.2803 2.24481 13.6106 2.26628L13.7721 2.27678C14.1024 2.29826 14.3534 2.58437 14.3326 2.91581C14.3118 3.24729 14.0272 3.49858 13.6968 3.47711L13.5353 3.46661C13.205 3.44514 12.9541 3.15903 12.9749 2.82755ZM16.3664 3.04801C16.3872 2.71658 16.6719 2.46528 17.0022 2.48675L17.1637 2.49725C17.494 2.51872 17.7449 2.80483 17.7241 3.13627C17.7034 3.46776 17.4187 3.71905 17.0884 3.69758L16.9269 3.68708C16.5966 3.66561 16.3456 3.3795 16.3664 3.04801ZM19.758 3.26847C19.7788 2.93705 20.0634 2.68575 20.3937 2.70722L20.5552 2.71772C20.8856 2.73919 21.1365 3.0253 21.1157 3.35672C21.0949 3.68823 20.8103 3.93952 20.48 3.91805L20.3185 3.90755C19.9881 3.88608 19.7372 3.59997 19.758 3.26847ZM23.1496 3.48893C23.1703 3.15751 23.455 2.90622 23.7853 2.92769L23.9468 2.93819C24.2771 2.95966 24.528 3.24577 24.5073 3.57718C24.4865 3.90869 24.2018 4.15999 23.8715 4.13852L23.71 4.12802C23.3797 4.10655 23.1288 3.82044 23.1496 3.48893ZM26.5411 3.70939C26.5619 3.37798 26.8465 3.12669 27.1768 3.14816L27.3384 3.15866C27.6687 3.18013 27.9196 3.46624 27.8988 3.79764C27.878 4.12916 27.5934 4.38046 27.2631 4.35899L27.1016 4.34849C26.7712 4.32702 26.5203 4.04091 26.5411 3.70939ZM29.9327 3.92985C29.9534 3.59845 30.2381 3.34716 30.5684 3.36863L30.7299 3.37913C31.0602 3.4006 31.3112 3.68671 31.2904 4.0181C31.2696 4.34963 30.9849 4.60093 30.6546 4.57946L30.4931 4.56896C30.1628 4.54748 29.9119 4.26137 29.9327 3.92985ZM33.3242 4.15031C33.345 3.81892 33.6296 3.56763 33.96 3.5891L34.1215 3.5996C34.4518 3.62107 34.7027 3.90718 34.6819 4.23856C34.6611 4.5701 34.3765 4.8214 34.0462 4.79992L33.8847 4.78943C33.5544 4.76795 33.3034 4.48184 33.3242 4.15031ZM36.7158 4.37077C36.7366 4.03939 37.0212 3.78809 37.3515 3.80957L37.513 3.82007C37.8433 3.84154 38.0943 4.12765 38.0735 4.45902C38.0527 4.79057 37.7681 5.04187 37.4377 5.02039L37.2762 5.00989C36.9459 4.98842 36.695 4.70231 36.7158 4.37077ZM40.1073 4.59123C40.1281 4.25986 40.4128 4.00856 40.7431 4.03004L40.9046 4.04053C41.2349 4.06201 41.4858 4.34812 41.465 4.67948C41.4443 5.01104 41.1596 5.26233 40.8293 5.24086L40.6678 5.23036C40.3375 5.20889 40.0865 4.92278 40.1073 4.59123ZM43.4989 4.81169C43.5197 4.48033 43.8043 4.22903 44.1346 4.2505L44.2961 4.261C44.6265 4.28248 44.8774 4.56859 44.8566 4.89994C44.8358 5.23151 44.5512 5.4828 44.2209 5.46133L44.0593 5.45083C43.729 5.42936 43.4781 5.14325 43.4989 4.81169ZM46.8905 5.03215C46.9112 4.7008 47.1959 4.4495 47.5262 4.47097L47.6877 4.48147C48.018 4.50295 48.2689 4.78905 48.2482 5.1204C48.2274 5.45198 47.9427 5.70327 47.6124 5.6818L47.4509 5.6713C47.1206 5.64983 46.8697 5.36372 46.8905 5.03215ZM50.282 5.2526C50.3028 4.92127 50.5874 4.66997 50.9177 4.69144L51.0792 4.70194C51.4096 4.72341 51.6605 5.00952 51.6397 5.34086C51.6189 5.67245 51.3343 5.92374 51.004 5.90227L50.8425 5.89177C50.5121 5.8703 50.2612 5.58419 50.282 5.2526ZM53.6736 5.47306C53.6943 5.14173 53.979 4.89044 54.3093 4.91191L54.4708 4.92241C54.8011 4.94388 55.0521 5.22999 55.0313 5.56132C55.0105 5.89292 54.7258 6.14421 54.3955 6.12274L54.234 6.11224C53.9037 6.09077 53.6528 5.80466 53.6736 5.47306ZM57.0651 5.69352C57.0859 5.3622 57.3705 5.11091 57.7009 5.13238L57.8624 5.14288C58.1927 5.16435 58.4436 5.45046 58.4228 5.78178C58.402 6.11338 58.1174 6.36468 57.7871 6.34321L57.6256 6.33271C57.2953 6.31124 57.0443 6.02513 57.0651 5.69352ZM60.4567 5.91398C60.4775 5.58267 60.7621 5.33138 61.0924 5.35285L61.2539 5.36335C61.5842 5.38482 61.8352 5.67093 61.8144 6.00224C61.7936 6.33385 61.509 6.58515 61.1786 6.56368L61.0171 6.55318C60.6868 6.53171 60.4359 6.2456 60.4567 5.91398ZM63.8482 6.13444C63.869 5.80314 64.1537 5.55185 64.484 5.57332L64.6455 5.58382C64.9758 5.60529 65.2267 5.8914 65.206 6.2227C65.1852 6.55432 64.9005 6.80562 64.5702 6.78415L64.4087 6.77365C64.0784 6.75217 63.8275 6.46606 63.8482 6.13444ZM67.2398 6.3549C67.2606 6.02361 67.5452 5.77232 67.8755 5.79379L67.9563 5.79904C68.2866 5.82051 68.5375 6.10662 68.5168 6.43791C68.496 6.76954 68.2113 7.02084 67.881 6.99937L67.8003 6.99412C67.4699 6.97264 67.219 6.68653 67.2398 6.3549Z" fill="#0B907B"/>
</g>
<g opacity="0.45">
<path opacity="0.45" fill-rule="evenodd" clip-rule="evenodd" d="M35.6458 38.4814C35.5194 38.1743 35.6644 37.8203 35.9698 37.6905L36.0515 37.6558C36.3569 37.526 36.7071 37.6697 36.8335 37.9767C36.96 38.2837 36.815 38.6378 36.5096 38.7676L36.4278 38.8023C36.1224 38.9321 35.7723 38.7884 35.6458 38.4814ZM38.9961 37.0578C38.8696 36.7508 39.0146 36.3967 39.32 36.2669L39.4835 36.1974C39.7889 36.0677 40.139 36.2114 40.2655 36.5184C40.3919 36.8254 40.2469 37.1795 39.9415 37.3092L39.7781 37.3787C39.4726 37.5085 39.1225 37.3648 38.9961 37.0578ZM42.428 35.5995C42.3015 35.2924 42.4466 34.9384 42.752 34.8086L42.9154 34.7391C43.2208 34.6094 43.5709 34.753 43.6974 35.0601C43.8239 35.3671 43.6788 35.7212 43.3734 35.8509L43.21 35.9204C42.9046 36.0502 42.5545 35.9065 42.428 35.5995ZM45.8599 34.1411C45.7334 33.8341 45.8785 33.48 46.1839 33.3503L46.3473 33.2808C46.6527 33.1511 47.0028 33.2947 47.1293 33.6017C47.2558 33.9088 47.1107 34.2628 46.8053 34.3926L46.6419 34.4621C46.3365 34.5918 45.9864 34.4482 45.8599 34.1411ZM49.2918 32.6828C49.1654 32.3758 49.3104 32.0217 49.6158 31.892L49.7793 31.8225C50.0847 31.6927 50.4348 31.8364 50.5612 32.1434C50.6877 32.4505 50.5427 32.8045 50.2373 32.9343L50.0738 33.0038C49.7684 33.1335 49.4183 32.9899 49.2918 32.6828ZM52.7238 31.2245C52.5973 30.9175 52.7423 30.5634 53.0478 30.4337L53.2112 30.3642C53.5166 30.2344 53.8667 30.3781 53.9932 30.6851C54.1197 30.9921 53.9746 31.3462 53.6692 31.476L53.5058 31.5454C53.2004 31.6752 52.8502 31.5315 52.7238 31.2245ZM56.1557 29.7662C56.0292 29.4592 56.1743 29.1051 56.4797 28.9753L56.5614 28.9406C56.8668 28.8108 57.2169 28.9545 57.3434 29.2615C57.4699 29.5686 57.3248 29.9226 57.0194 30.0524L56.9377 30.0871C56.6323 30.2169 56.2822 30.0732 56.1557 29.7662Z" fill="#0B907B"/>
</g>
<g opacity="0.45">
<path opacity="0.45" fill-rule="evenodd" clip-rule="evenodd" d="M69.7609 10.2578C70.0466 10.4316 70.1404 10.8059 69.9704 11.094L69.9351 11.1538C69.7651 11.4418 69.3957 11.5344 69.11 11.3607C68.8243 11.1869 68.7305 10.8126 68.9005 10.5245L68.9358 10.4647C69.1058 10.1767 69.4752 10.0841 69.7609 10.2578ZM68.3137 12.7099C68.5994 12.8836 68.6932 13.258 68.5232 13.546L68.4526 13.6656C68.2826 13.9537 67.9131 14.0463 67.6274 13.8725C67.3417 13.6988 67.248 13.3244 67.418 13.0364L67.4885 12.9168C67.6585 12.6287 68.028 12.5361 68.3137 12.7099ZM66.8312 15.2217C67.1169 15.3955 67.2106 15.7698 67.0406 16.0579L66.9701 16.1775C66.8001 16.4655 66.4306 16.5581 66.1449 16.3844C65.8592 16.2106 65.7654 15.8363 65.9354 15.5482L66.006 15.4286C66.176 15.1406 66.5455 15.0479 66.8312 15.2217ZM65.3486 17.7336C65.6343 17.9073 65.7281 18.2817 65.5581 18.5697L65.4875 18.6893C65.3175 18.9773 64.9481 19.07 64.6624 18.8962C64.3767 18.7225 64.2829 18.3481 64.4529 18.0601L64.5235 17.9405C64.6935 17.6524 65.0629 17.5598 65.3486 17.7336ZM63.8661 20.2454C64.1518 20.4192 64.2456 20.7935 64.0756 21.0816L64.005 21.2012C63.835 21.4892 63.4656 21.5818 63.1799 21.4081C62.8942 21.2343 62.8004 20.8599 62.9704 20.5719L63.041 20.4523C63.211 20.1643 63.5804 20.0716 63.8661 20.2454ZM62.3836 22.7572C62.6693 22.931 62.7631 23.3054 62.5931 23.5934L62.5225 23.713C62.3525 24.001 61.9831 24.0937 61.6974 23.9199C61.4117 23.7462 61.3179 23.3718 61.4879 23.0838L61.5585 22.9642C61.7285 22.6761 62.0979 22.5835 62.3836 22.7572ZM60.9011 25.2691C61.1868 25.4429 61.2806 25.8172 61.1106 26.1052L61.0753 26.1651C60.9053 26.4531 60.5359 26.5457 60.2502 26.372C59.9645 26.1982 59.8707 25.8238 60.0407 25.5358L60.076 25.476C60.246 25.188 60.6154 25.0953 60.9011 25.2691Z" fill="#0B907B"/>
</g>
<g opacity="0.45">
<path opacity="0.45" fill-rule="evenodd" clip-rule="evenodd" d="M6.06282 4.79505C6.19402 4.49017 6.54629 4.35205 6.84963 4.48657L6.9271 4.52092C7.23044 4.65543 7.36999 5.01163 7.23878 5.31651C7.10758 5.62139 6.75531 5.7595 6.45197 5.62499L6.3745 5.59063C6.07116 5.45612 5.93162 5.09993 6.06282 4.79505ZM9.23905 6.20349C9.37026 5.89861 9.72253 5.7605 10.0259 5.89501L10.1808 5.96372C10.4841 6.09823 10.6237 6.45442 10.4925 6.7593C10.3613 7.06418 10.009 7.20229 9.70567 7.06778L9.55074 6.99908C9.2474 6.86457 9.10785 6.50837 9.23905 6.20349ZM12.4928 7.64629C12.624 7.34141 12.9762 7.2033 13.2796 7.33781L13.4345 7.40651C13.7378 7.54102 13.8774 7.89722 13.7462 8.2021C13.615 8.50698 13.2627 8.64509 12.9594 8.51058L12.8044 8.44188C12.5011 8.30736 12.3616 7.95117 12.4928 7.64629ZM15.7465 9.08909C15.8777 8.78421 16.2299 8.64609 16.5333 8.78061L16.6882 8.84931C16.9916 8.98382 17.1311 9.34002 16.9999 9.6449C16.8687 9.94978 16.5164 10.0879 16.2131 9.95338L16.0581 9.88467C15.7548 9.75016 15.6153 9.39397 15.7465 9.08909ZM19.0002 10.5319C19.1314 10.227 19.4836 10.0889 19.787 10.2234L19.9419 10.2921C20.2453 10.4266 20.3848 10.7828 20.2536 11.0877C20.1224 11.3926 19.7701 11.5307 19.4668 11.3962L19.3118 11.3275C19.0085 11.193 18.869 10.8368 19.0002 10.5319ZM22.2539 11.9747C22.3851 11.6698 22.7373 11.5317 23.0407 11.6662L23.1956 11.7349C23.499 11.8694 23.6385 12.2256 23.5073 12.5305C23.3761 12.8354 23.0238 12.9735 22.7205 12.839L22.5655 12.7703C22.2622 12.6358 22.1227 12.2796 22.2539 11.9747ZM25.5076 13.4175C25.6388 13.1126 25.991 12.9745 26.2944 13.109L26.4493 13.1777C26.7527 13.3122 26.8922 13.6684 26.761 13.9733C26.6298 14.2782 26.2775 14.4163 25.9742 14.2818L25.8192 14.2131C25.5159 14.0786 25.3764 13.7224 25.5076 13.4175ZM28.7613 14.8603C28.8925 14.5554 29.2447 14.4173 29.5481 14.5518L29.703 14.6205C30.0064 14.755 30.1459 15.1112 30.0147 15.4161C29.8835 15.721 29.5312 15.8591 29.2279 15.7246L29.073 15.6559C28.7696 15.5214 28.6301 15.1652 28.7613 14.8603ZM32.015 16.3031C32.1462 15.9982 32.4984 15.8601 32.8018 15.9946L32.9567 16.0633C33.2601 16.1978 33.3996 16.554 33.2684 16.8589C33.1372 17.1638 32.7849 17.3019 32.4816 17.1674L32.3267 17.0987C32.0233 16.9641 31.8838 16.6079 32.015 16.3031ZM35.2687 17.7459C35.3999 17.441 35.7521 17.3029 36.0555 17.4374L36.2104 17.5061C36.5138 17.6406 36.6533 17.9968 36.5221 18.3017C36.3909 18.6066 36.0386 18.7447 35.7353 18.6102L35.5804 18.5415C35.277 18.4069 35.1375 18.0507 35.2687 17.7459ZM38.5224 19.1887C38.6536 18.8838 39.0058 18.7457 39.3092 18.8802L39.4641 18.9489C39.7675 19.0834 39.907 19.4396 39.7758 19.7445C39.6446 20.0494 39.2923 20.1875 38.989 20.053L38.8341 19.9843C38.5307 19.8497 38.3912 19.4935 38.5224 19.1887ZM41.7761 20.6315C41.9073 20.3266 42.2595 20.1885 42.5629 20.323L42.7178 20.3917C43.0212 20.5262 43.1607 20.8824 43.0295 21.1873C42.8983 21.4922 42.546 21.6303 42.2427 21.4958L42.0878 21.4271C41.7844 21.2925 41.6449 20.9363 41.7761 20.6315ZM45.0298 22.0743C45.161 21.7694 45.5133 21.6313 45.8166 21.7658L45.9715 21.8345C46.2749 21.969 46.4144 22.3252 46.2832 22.6301C46.152 22.935 45.7997 23.0731 45.4964 22.9386L45.3415 22.8698C45.0381 22.7353 44.8986 22.3791 45.0298 22.0743ZM48.2835 23.5171C48.4147 23.2122 48.767 23.0741 49.0703 23.2086L49.2252 23.2773C49.5286 23.4118 49.6681 23.768 49.5369 24.0729C49.4057 24.3777 49.0534 24.5159 48.7501 24.3813L48.5952 24.3126C48.2918 24.1781 48.1523 23.8219 48.2835 23.5171ZM51.5372 24.9599C51.6684 24.655 52.0207 24.5169 52.324 24.6514L52.4789 24.7201C52.7823 24.8546 52.9218 25.2108 52.7906 25.5157C52.6594 25.8205 52.3071 25.9587 52.0038 25.8241L51.8489 25.7554C51.5455 25.6209 51.406 25.2647 51.5372 24.9599ZM54.7909 26.4026C54.9221 26.0978 55.2744 25.9597 55.5777 26.0942L55.6552 26.1285C55.9585 26.263 56.0981 26.6192 55.9669 26.9241C55.8357 27.229 55.4834 27.3671 55.18 27.2326L55.1026 27.1982C54.7992 27.0637 54.6597 26.7075 54.7909 26.4026Z" fill="#0B907B"/>
</g>
<path fill-rule="evenodd" clip-rule="evenodd" d="M34.6082 36.1718C34.3099 36.0264 34.1842 35.6631 34.3275 35.3603L44.7726 13.2941C44.9159 12.9914 45.2739 12.8638 45.5723 13.0093C45.8707 13.1547 45.9964 13.518 45.8531 13.8207L35.4079 35.8869C35.2646 36.1897 34.9066 36.3172 34.6082 36.1718Z" fill="#0B907B"/>
<path fill-rule="evenodd" clip-rule="evenodd" d="M56.9672 26.124C56.7 26.3221 56.325 26.2629 56.1298 25.9917L47.3115 13.7424C47.1162 13.4712 47.1746 13.0908 47.4419 12.8926C47.7092 12.6945 48.0841 12.7538 48.2793 13.025L57.0977 25.2742C57.2929 25.5454 57.2345 25.9259 56.9672 26.124Z" fill="#0B907B"/>
<path fill-rule="evenodd" clip-rule="evenodd" d="M68.3446 8.43169C68.3695 8.76659 68.1222 9.0586 67.7921 9.0839L49.1251 10.5151C48.795 10.5404 48.5073 10.2894 48.4823 9.95449C48.4574 9.61959 48.7047 9.32758 49.0348 9.30228L67.7018 7.87111C68.0319 7.84581 68.3196 8.09679 68.3446 8.43169Z" fill="#0B907B"/>
<path fill-rule="evenodd" clip-rule="evenodd" d="M4.68588 5.62214C4.93844 5.40507 5.31661 5.43685 5.53054 5.69313L31.1297 36.3599C31.3436 36.6162 31.3123 36.9999 31.0597 37.217C30.8071 37.4341 30.429 37.4023 30.215 37.146L4.61592 6.47923C4.402 6.22295 4.43332 5.83922 4.68588 5.62214Z" fill="#0B907B"/>
<path d="M3.65533 5.55256C2.56544 5.55256 1.68155 4.65601 1.68155 3.5494C1.68155 2.44331 2.56544 1.54642 3.65533 1.54642C4.74556 1.54642 5.62912 2.44331 5.62912 3.5494C5.62912 4.65601 4.74556 5.55256 3.65533 5.55256ZM3.65533 0.468299C1.97812 0.468299 0.618713 1.84822 0.618713 3.5494C0.618713 5.25163 1.97812 6.63137 3.65533 6.63137C5.33255 6.63137 6.69195 5.25163 6.69195 3.5494C6.69195 1.84822 5.33255 0.468299 3.65533 0.468299Z" fill="#0B907B"/>
<path fill-rule="evenodd" clip-rule="evenodd" d="M3.65535 6.5445C2.02544 6.5445 0.704343 5.20367 0.704343 3.5494C0.704343 1.89619 2.02542 0.555171 3.65535 0.555171C5.28527 0.555171 6.60635 1.89619 6.60635 3.5494C6.60635 5.20367 5.28526 6.5445 3.65535 6.5445ZM0.533112 3.5494C0.533112 5.29959 1.93083 6.71825 3.65535 6.71825C5.37986 6.71825 6.77758 5.29959 6.77758 3.5494C6.77758 1.80024 5.37985 0.381421 3.65535 0.381421C1.93084 0.381421 0.533112 1.80024 0.533112 3.5494ZM1.59595 3.5494C1.59595 4.70399 2.51817 5.63943 3.65535 5.63943C4.79287 5.63943 5.71475 4.70398 5.71475 3.5494C5.71475 2.39534 4.79288 1.45954 3.65535 1.45954C2.51817 1.45954 1.59595 2.39533 1.59595 3.5494ZM3.65535 5.46569C2.61274 5.46569 1.76718 4.60803 1.76718 3.5494C1.76718 2.49128 2.61275 1.63329 3.65535 1.63329C4.69828 1.63329 5.54352 2.49127 5.54352 3.5494C5.54352 4.60804 4.69828 5.46569 3.65535 5.46569Z" fill="#0B907B"/>
<path d="M46.2351 12.85C45.1449 12.85 44.261 11.9535 44.261 10.8469C44.261 9.74077 45.1449 8.84387 46.2351 8.84387C47.325 8.84387 48.2086 9.74077 48.2086 10.8469C48.2086 11.9535 47.325 12.85 46.2351 12.85ZM46.2351 7.76576C44.5576 7.76576 43.1982 9.14568 43.1982 10.8469C43.1982 12.5491 44.5576 13.9288 46.2351 13.9288C47.912 13.9288 49.2714 12.5491 49.2714 10.8469C49.2714 9.14568 47.912 7.76576 46.2351 7.76576Z" fill="#0B907B"/>
<path fill-rule="evenodd" clip-rule="evenodd" d="M46.2351 13.842C44.6049 13.842 43.2838 12.5011 43.2838 10.8469C43.2838 9.19367 44.6049 7.85264 46.2351 7.85264C47.8647 7.85264 49.1858 9.19365 49.1858 10.8469C49.1858 12.5011 47.8647 13.842 46.2351 13.842ZM43.1125 10.8469C43.1125 12.5971 44.5103 14.0157 46.2351 14.0157C47.9593 14.0157 49.357 12.597 49.357 10.8469C49.357 9.09772 47.9593 7.67889 46.2351 7.67889C44.5103 7.67889 43.1125 9.09771 43.1125 10.8469ZM44.1754 10.8469C44.1754 12.0015 45.0976 12.9369 46.2351 12.9369C47.3723 12.9369 48.2942 12.0014 48.2942 10.8469C48.2942 9.69282 47.3723 8.75701 46.2351 8.75701C45.0976 8.75701 44.1754 9.69279 44.1754 10.8469ZM46.2351 12.7632C45.1922 12.7632 44.3466 11.9055 44.3466 10.8469C44.3466 9.78876 45.1922 8.93076 46.2351 8.93076C47.2777 8.93076 48.123 9.78873 48.123 10.8469C48.123 11.9055 47.2777 12.7632 46.2351 12.7632Z" fill="#0B907B"/>
<path d="M58.5637 29.8775C57.4734 29.8775 56.5895 28.981 56.5895 27.8743C56.5895 26.7683 57.4734 25.8714 58.5637 25.8714C59.6535 25.8714 60.5371 26.7683 60.5371 27.8743C60.5371 28.981 59.6535 29.8775 58.5637 29.8775ZM58.5637 24.7932C56.8861 24.7932 55.5267 26.1732 55.5267 27.8743C55.5267 29.5766 56.8861 30.9563 58.5637 30.9563C60.2405 30.9563 61.5999 29.5766 61.5999 27.8743C61.5999 26.1732 60.2405 24.7932 58.5637 24.7932Z" fill="#0B907B"/>
<path fill-rule="evenodd" clip-rule="evenodd" d="M58.5636 30.8694C56.9334 30.8694 55.6123 29.5286 55.6123 27.8743C55.6123 26.2211 56.9334 24.8801 58.5636 24.8801C60.1932 24.8801 61.5143 26.2211 61.5143 27.8743C61.5143 29.5286 60.1932 30.8694 58.5636 30.8694ZM55.4411 27.8743C55.4411 29.6245 56.8388 31.0432 58.5636 31.0432C60.2878 31.0432 61.6855 29.6245 61.6855 27.8743C61.6855 26.1252 60.2878 24.7064 58.5636 24.7064C56.8388 24.7064 55.4411 26.1252 55.4411 27.8743ZM56.5039 27.8743C56.5039 29.029 57.4261 29.9644 58.5636 29.9644C59.7008 29.9644 60.6227 29.0289 60.6227 27.8743C60.6227 26.7203 59.7008 25.7845 58.5636 25.7845C57.4261 25.7845 56.5039 26.7203 56.5039 27.8743ZM58.5636 29.7906C57.5207 29.7906 56.6751 28.933 56.6751 27.8743C56.6751 26.8162 57.5207 25.9582 58.5636 25.9582C59.6062 25.9582 60.4515 26.8162 60.4515 27.8743C60.4515 28.933 59.6062 29.7906 58.5636 29.7906Z" fill="#0B907B"/>
<path d="M70.3968 9.61189C69.3066 9.61189 68.4227 8.71534 68.4227 7.60873C68.4227 6.50264 69.3066 5.60575 70.3968 5.60575C71.4867 5.60575 72.3702 6.50264 72.3702 7.60873C72.3702 8.71534 71.4867 9.61189 70.3968 9.61189ZM70.3968 4.52763C68.7192 4.52763 67.3598 5.90755 67.3598 7.60873C67.3598 9.31096 68.7192 10.6907 70.3968 10.6907C72.0737 10.6907 73.4331 9.31096 73.4331 7.60873C73.4331 5.90755 72.0737 4.52763 70.3968 4.52763Z" fill="#0B907B"/>
<path fill-rule="evenodd" clip-rule="evenodd" d="M70.3968 10.6038C68.7665 10.6038 67.4455 9.26299 67.4455 7.60873C67.4455 5.95553 68.7665 4.61451 70.3968 4.61451C72.0264 4.61451 73.3475 5.95552 73.3475 7.60873C73.3475 9.26301 72.0264 10.6038 70.3968 10.6038ZM67.2742 7.60873C67.2742 9.35893 68.672 10.7776 70.3968 10.7776C72.121 10.7776 73.5187 9.35891 73.5187 7.60873C73.5187 5.85958 72.121 4.44076 70.3968 4.44076C68.672 4.44076 67.2742 5.85957 67.2742 7.60873ZM68.3371 7.60873C68.3371 8.76334 69.2593 9.69877 70.3968 9.69877C71.534 9.69877 72.4559 8.76331 72.4559 7.60873C72.4559 6.45469 71.534 5.51887 70.3968 5.51887C69.2593 5.51887 68.3371 6.45466 68.3371 7.60873ZM70.3968 9.52502C69.3539 9.52502 68.5083 8.66736 68.5083 7.60873C68.5083 6.55063 69.3539 5.69262 70.3968 5.69262C71.4394 5.69262 72.2846 6.5506 72.2846 7.60873C72.2846 8.66739 71.4394 9.52502 70.3968 9.52502Z" fill="#0B907B"/>
<path d="M33.1644 40.2445C32.0742 40.2445 31.1903 39.3479 31.1903 38.2413C31.1903 37.1352 32.0742 36.2383 33.1644 36.2383C34.2543 36.2383 35.1378 37.1352 35.1378 38.2413C35.1378 39.3479 34.2543 40.2445 33.1644 40.2445ZM33.1644 35.1602C31.4872 35.1602 30.1274 36.5401 30.1274 38.2413C30.1274 39.9436 31.4872 41.3233 33.1644 41.3233C34.8413 41.3233 36.201 39.9436 36.201 38.2413C36.201 36.5401 34.8413 35.1602 33.1644 35.1602Z" fill="#0B907B"/>
<path fill-rule="evenodd" clip-rule="evenodd" d="M33.1644 41.2364C31.5345 41.2364 30.213 39.8956 30.213 38.2413C30.213 36.5881 31.5345 35.2471 33.1644 35.2471C34.794 35.2471 36.1154 36.5881 36.1154 38.2413C36.1154 39.8956 34.794 41.2364 33.1644 41.2364ZM30.0418 38.2413C30.0418 39.9915 31.4399 41.4102 33.1644 41.4102C34.8886 41.4102 36.2866 39.9915 36.2866 38.2413C36.2866 36.4922 34.8885 35.0733 33.1644 35.0733C31.4399 35.0733 30.0418 36.4922 30.0418 38.2413ZM31.1046 38.2413C31.1046 39.3959 32.0269 40.3314 33.1644 40.3314C34.3016 40.3314 35.2234 39.3959 35.2234 38.2413C35.2234 37.0873 34.3016 36.1515 33.1644 36.1515C32.0269 36.1515 31.1046 37.0873 31.1046 38.2413ZM33.1644 40.1576C32.1214 40.1576 31.2759 39.2999 31.2759 38.2413C31.2759 37.1832 32.1214 36.3252 33.1644 36.3252C34.207 36.3252 35.0522 37.1832 35.0522 38.2413C35.0522 39.3 34.207 40.1576 33.1644 40.1576Z" fill="#0B907B"/>
</svg>
