<svg width="62" height="22" viewBox="0 0 62 22" fill="none" xmlns="http://www.w3.org/2000/svg">
<path d="M0.215607 1.06828H1.89019C2.07036 1.06828 2.21679 1.10885 2.32999 1.18947C2.44319 1.27008 2.52783 1.3744 2.58442 1.50244L5.20818 7.78026C5.29542 7.98417 5.37902 8.20862 5.45898 8.4531C5.53842 8.69704 5.61424 8.95469 5.68641 9.22498C5.8048 8.67966 5.95123 8.19808 6.12622 7.78026L8.74167 1.50244C8.7884 1.39337 8.87044 1.29379 8.98883 1.20369C9.10722 1.1136 9.25365 1.06828 9.42864 1.06828H11.1027L6.59665 11.3604H4.72165L0.215607 1.06828Z" fill="#0B907B"/>
<path d="M22.5755 6.21436C22.5755 6.96886 22.4394 7.66751 22.1668 8.31031C21.8942 8.95364 21.511 9.51003 21.0172 9.97948C20.5234 10.4495 19.9294 10.8162 19.2346 11.0791C18.5404 11.3425 17.7714 11.4743 16.9276 11.4743C16.0839 11.4743 15.3138 11.3425 14.617 11.0791C13.9196 10.8162 13.323 10.4495 12.8266 9.97948C12.3302 9.51003 11.946 8.95364 11.6734 8.31031C11.4002 7.66751 11.2642 6.96886 11.2642 6.21436C11.2642 5.45987 11.4002 4.76122 11.6734 4.11842C11.946 3.47509 12.3302 2.9187 12.8266 2.44925C13.323 1.97927 13.9196 1.61255 14.617 1.34964C15.3138 1.0862 16.0839 0.954475 16.9276 0.954475C17.7714 0.954475 18.5404 1.08725 19.2346 1.3528C19.9294 1.61888 20.5234 1.98506 21.0172 2.45294C21.511 2.92028 21.8942 3.47509 22.1668 4.11842C22.4394 4.76122 22.5755 5.45987 22.5755 6.21436ZM20.4461 6.21436C20.4461 5.64954 20.3651 5.14321 20.203 4.69483C20.041 4.24645 19.8084 3.86551 19.5047 3.55254C19.2014 3.23905 18.8322 2.99932 18.3976 2.83335C17.963 2.66738 17.4728 2.58413 16.9276 2.58413C16.3824 2.58413 15.8912 2.66738 15.454 2.83335C15.0168 2.99932 14.645 3.23905 14.3392 3.55254C14.0328 3.86551 13.7976 4.24645 13.633 4.69483C13.4684 5.14321 13.3858 5.64954 13.3858 6.21436C13.3858 6.77918 13.4684 7.28552 13.633 7.7339C13.7976 8.18228 14.0328 8.56216 14.3392 8.87302C14.645 9.18388 15.0168 9.42204 15.454 9.58801C15.8912 9.75397 16.3824 9.83722 16.9276 9.83722C17.4728 9.83722 17.963 9.75397 18.3976 9.58801C18.8322 9.42204 19.2014 9.18388 19.5047 8.87302C19.8084 8.56216 20.041 8.18228 20.203 7.7339C20.3651 7.28552 20.4461 6.77918 20.4461 6.21436Z" fill="#0B907B"/>
<path d="M28.6102 7.36034V11.3604H26.5348V7.36034L22.4685 1.06828H24.2968C24.477 1.06828 24.6198 1.10885 24.7252 1.18947C24.8306 1.27008 24.9194 1.37177 24.9916 1.49559L27.0364 4.93298C27.1542 5.13741 27.2576 5.33078 27.3448 5.51308C27.432 5.69591 27.512 5.87505 27.5842 6.0505C27.6506 5.87031 27.727 5.68906 27.8116 5.50623C27.8962 5.3234 27.998 5.13267 28.1164 4.93298L30.1456 1.49559C30.2022 1.39074 30.2874 1.29379 30.4 1.20369C30.5132 1.1136 30.6576 1.06828 30.8326 1.06828H32.6686L28.6102 7.36034Z" fill="#0B907B"/>
<path d="M42.2779 11.3604H40.6729C40.4927 11.3604 40.3452 11.3188 40.2294 11.2361C40.1136 11.1529 40.03 11.0496 39.9786 10.9263L39.1452 8.82666H34.5234L33.69 10.9263C33.649 11.0354 33.568 11.1349 33.447 11.225C33.326 11.3151 33.178 11.3604 33.003 11.3604H31.3908L35.7732 1.06828H37.8954L42.2779 11.3604ZM35.0556 7.47414H38.613L37.2546 4.05045C37.1929 3.89871 37.1248 3.71957 37.0501 3.51303C36.9758 3.30701 36.9026 3.08256 36.8304 2.84072C36.7583 3.08256 36.6876 3.30807 36.6181 3.51671C36.549 3.72536 36.4805 3.90819 36.4135 4.06468L35.0556 7.47414Z" fill="#0B907B"/>
<path d="M48.1916 9.95103C48.6599 9.95103 49.0676 9.91204 49.4144 9.83353C49.7618 9.75555 50.0926 9.64754 50.4062 9.51003V7.63801H49.0094C48.876 7.63801 48.7705 7.60376 48.6932 7.53474C48.6158 7.46572 48.5774 7.38141 48.5774 7.28183V6.20014H52.289V10.3641C52.006 10.5538 51.7116 10.7187 51.4052 10.8589C51.0994 10.9985 50.7728 11.1139 50.4254 11.204C50.078 11.2941 49.7068 11.3615 49.3106 11.4068C48.9144 11.4516 48.4876 11.4743 48.0296 11.4743C47.217 11.4743 46.4682 11.3436 45.7843 11.0828C45.1 10.822 44.5085 10.4589 44.0096 9.99371C43.5106 9.52899 43.1211 8.97366 42.8407 8.32822C42.5603 7.68279 42.4201 6.97835 42.4201 6.21436C42.4201 5.4409 42.5562 4.73171 42.8293 4.08628C43.1019 3.44084 43.4887 2.88551 43.9903 2.4208C44.4919 1.95556 45.1 1.59517 45.815 1.33857C46.53 1.08251 47.3327 0.954475 48.2227 0.954475C49.133 0.954475 49.9212 1.07882 50.5874 1.32804C51.2536 1.57725 51.818 1.90129 52.2812 2.29961L51.6794 3.16792C51.561 3.34337 51.4042 3.43136 51.2084 3.43136C51.0854 3.43136 50.9592 3.39342 50.8304 3.31755C50.6658 3.22746 50.4976 3.13736 50.3252 3.04726C50.1528 2.95664 49.9622 2.87866 49.754 2.81227C49.5458 2.74588 49.3116 2.69109 49.052 2.64841C48.7924 2.60573 48.4928 2.58413 48.1532 2.58413C47.6028 2.58413 47.1048 2.67001 46.6598 2.84072C46.2153 3.01143 45.8358 3.25591 45.5221 3.57362C45.208 3.89186 44.9665 4.27385 44.7967 4.71959C44.6269 5.16586 44.5418 5.66377 44.5418 6.21436C44.5418 6.80764 44.6321 7.33557 44.8123 7.79818C44.992 8.26078 45.2443 8.65121 45.5683 8.96892C45.8923 9.28663 46.2782 9.53005 46.7257 9.69865C47.1733 9.86673 47.6619 9.95103 48.1916 9.95103Z" fill="#0B907B"/>
<path d="M61.2611 1.06828V2.59151H56.3152V5.44564H60.2117V6.91881H56.3152V9.83037H61.2611V11.3604H54.2242V1.06828H61.2611Z" fill="#0B907B"/>
<path d="M5.76794 20.5108C5.81831 20.5108 5.86348 20.5298 5.9045 20.5677L6.26279 20.9287C5.98603 21.2242 5.65059 21.455 5.25596 21.6199C4.86185 21.7854 4.38622 21.8681 3.82959 21.8681C3.34253 21.8681 2.90065 21.7906 2.50498 21.6352C2.1088 21.4803 1.77077 21.2627 1.49089 20.9829C1.21102 20.7032 0.994486 20.3675 0.840269 19.9761C0.686052 19.5846 0.609207 19.1541 0.609207 18.6841C0.609207 18.2142 0.691762 17.7837 0.856883 17.3922C1.022 17.0007 1.25359 16.6646 1.55216 16.3832C1.85073 16.1019 2.2085 15.8837 2.62493 15.7283C3.04137 15.5734 3.50142 15.496 4.00405 15.496C4.50097 15.496 4.92936 15.5671 5.2892 15.7088C5.64903 15.8511 5.96889 16.0439 6.24876 16.2873L5.95176 16.6746C5.92943 16.7036 5.9045 16.7273 5.87646 16.7463C5.84791 16.7652 5.80689 16.7747 5.7534 16.7747C5.7129 16.7747 5.6698 16.761 5.62411 16.7331C5.57841 16.7057 5.52441 16.6714 5.46106 16.6309C5.39823 16.5903 5.3245 16.5471 5.23987 16.5007C5.15471 16.4544 5.05398 16.4106 4.93766 16.3701C4.82135 16.3295 4.68634 16.2952 4.53213 16.2678C4.37843 16.2404 4.20085 16.2267 3.99938 16.2267C3.63798 16.2267 3.30722 16.2836 3.0071 16.3985C2.70697 16.5128 2.44838 16.6762 2.23134 16.8875C2.01429 17.0993 1.84554 17.3574 1.72455 17.662C1.60357 17.9665 1.54282 18.3074 1.54282 18.6841C1.54282 19.0724 1.60357 19.4191 1.72455 19.7237C1.84554 20.0282 2.01066 20.2853 2.2194 20.4956C2.42865 20.7058 2.67633 20.866 2.96244 20.9766C3.24803 21.0867 3.55646 21.1415 3.88618 21.1415C4.08765 21.1415 4.26835 21.131 4.4288 21.1089C4.58873 21.0873 4.73775 21.053 4.87431 21.0066C5.01087 20.9603 5.13809 20.9018 5.25596 20.8307C5.37383 20.7595 5.49274 20.6747 5.61216 20.5762C5.66565 20.533 5.71757 20.5108 5.76794 20.5108Z" fill="#0B907B"/>
<path d="M13.7415 18.6841C13.7415 19.151 13.661 19.5793 13.5011 19.9692C13.3407 20.3596 13.1143 20.6953 12.8219 20.9766C12.5296 21.2574 12.1781 21.4761 11.7678 21.631C11.3576 21.7864 10.9043 21.8639 10.4074 21.8639C9.91102 21.8639 9.45823 21.7864 9.04958 21.631C8.64093 21.4761 8.29045 21.2574 7.99811 20.9766C7.70577 20.6953 7.47938 20.3596 7.31893 19.9692C7.159 19.5793 7.07852 19.151 7.07852 18.6841C7.07852 18.2173 7.159 17.789 7.31893 17.3991C7.47938 17.0086 7.70577 16.6725 7.99811 16.3896C8.29045 16.1071 8.64093 15.8874 9.04958 15.7309C9.45823 15.5739 9.91102 15.496 10.4074 15.496C10.9043 15.496 11.3576 15.5739 11.7678 15.7309C12.1781 15.8874 12.5296 16.1071 12.8219 16.3896C13.1143 16.6725 13.3407 17.0086 13.5011 17.3991C13.661 17.789 13.7415 18.2173 13.7415 18.6841ZM12.8032 18.6841C12.8032 18.3016 12.7466 17.9576 12.6334 17.653C12.5202 17.349 12.3598 17.0914 12.1521 16.8811C11.9449 16.6709 11.6931 16.5092 11.3976 16.3964C11.1022 16.2831 10.7725 16.2267 10.4074 16.2267C10.046 16.2267 9.71786 16.2831 9.42189 16.3964C9.12644 16.5092 8.8746 16.6709 8.66534 16.8811C8.45609 17.0914 8.29512 17.349 8.18192 17.653C8.06873 17.9576 8.01213 18.3016 8.01213 18.6841C8.01213 19.0667 8.06873 19.4097 8.18192 19.7126C8.29512 20.0161 8.45609 20.2727 8.66534 20.4829C8.8746 20.6931 9.12644 20.8538 9.42189 20.9655C9.71786 21.0772 10.046 21.1331 10.4074 21.1331C10.7725 21.1331 11.1022 21.0772 11.3976 20.9655C11.6931 20.8538 11.9449 20.6931 12.1521 20.4829C12.3598 20.2727 12.5202 20.0161 12.6334 19.7126C12.7466 19.4097 12.8032 19.0667 12.8032 18.6841Z" fill="#0B907B"/>
<path d="M15.4623 15.5655C15.5443 15.5655 15.6046 15.575 15.644 15.594C15.6835 15.6124 15.7281 15.6509 15.7785 15.7088L19.6921 20.4065C19.6828 20.3312 19.6765 20.2579 19.6734 20.1868C19.6703 20.1157 19.6682 20.0472 19.6682 19.9803V15.5655H20.4699V21.7986H20.0078C19.9356 21.7986 19.8754 21.787 19.8266 21.7638C19.7778 21.7406 19.73 21.7016 19.6828 21.6463L15.7738 16.9528C15.7801 17.0255 15.7847 17.0966 15.7879 17.1662C15.791 17.2357 15.7925 17.2995 15.7925 17.3574V21.7986H14.9908V15.5655H15.4623Z" fill="#0B907B"/>
<path d="M26.7227 15.5655V16.2742H24.5393V21.7986H23.6244V16.2742H21.4321V15.5655H26.7227Z" fill="#0B907B"/>
<path d="M28.6886 19.1973V21.7986H27.7789V15.5655H29.6887C30.116 15.5655 30.4852 15.6056 30.7968 15.6851C31.1078 15.7647 31.3648 15.8801 31.5673 16.0308C31.7704 16.1814 31.9204 16.3637 32.018 16.5766C32.1151 16.79 32.1639 17.0281 32.1639 17.2921C32.1639 17.5129 32.126 17.7184 32.0507 17.9102C31.9755 18.1014 31.8664 18.2732 31.7231 18.4254C31.5803 18.5777 31.4058 18.7073 31.1997 18.8148C30.9941 18.9218 30.7604 19.0029 30.4997 19.0582C30.6124 19.1194 30.7132 19.2073 30.8014 19.3238L32.7725 21.7986H31.9614C31.7947 21.7986 31.6722 21.739 31.5933 21.6199L29.8393 19.3933C29.7858 19.3238 29.7276 19.2737 29.6648 19.2432C29.602 19.2126 29.508 19.1973 29.3818 19.1973H28.6886ZM28.6886 18.584H29.6461C29.913 18.584 30.1482 18.5545 30.3507 18.495C30.5538 18.4355 30.7235 18.3512 30.8601 18.2426C30.9972 18.1341 31.1 18.0039 31.1691 17.8532C31.2381 17.7026 31.2729 17.5361 31.2729 17.3532C31.2729 16.9818 31.14 16.702 30.8741 16.5139C30.6088 16.3253 30.2136 16.231 29.6887 16.231H28.6886V18.584Z" fill="#0B907B"/>
<path d="M39.8369 18.6841C39.8369 19.151 39.7564 19.5793 39.5959 19.9692C39.436 20.3596 39.2096 20.6953 38.9173 20.9766C38.6249 21.2574 38.2734 21.4761 37.8632 21.631C37.453 21.7864 36.9997 21.8639 36.5028 21.8639C36.0064 21.8639 35.5536 21.7864 35.1449 21.631C34.7363 21.4761 34.3858 21.2574 34.0934 20.9766C33.8011 20.6953 33.5747 20.3596 33.4143 19.9692C33.2543 19.5793 33.1739 19.151 33.1739 18.6841C33.1739 18.2173 33.2543 17.789 33.4143 17.3991C33.5747 17.0086 33.8011 16.6725 34.0934 16.3896C34.3858 16.1071 34.7363 15.8874 35.1449 15.7309C35.5536 15.5739 36.0064 15.496 36.5028 15.496C36.9997 15.496 37.453 15.5739 37.8632 15.7309C38.2734 15.8874 38.6249 16.1071 38.9173 16.3896C39.2096 16.6725 39.436 17.0086 39.5959 17.3991C39.7564 17.789 39.8369 18.2173 39.8369 18.6841ZM38.8981 18.6841C38.8981 18.3016 38.8415 17.9576 38.7288 17.653C38.6156 17.349 38.4551 17.0914 38.2474 16.8811C38.0403 16.6709 37.7884 16.5092 37.493 16.3964C37.1975 16.2831 36.8678 16.2267 36.5028 16.2267C36.1414 16.2267 35.8127 16.2831 35.5172 16.3964C35.2218 16.5092 34.9694 16.6709 34.7607 16.8811C34.5514 17.0914 34.3905 17.349 34.2773 17.653C34.1641 17.9576 34.1075 18.3016 34.1075 18.6841C34.1075 19.0667 34.1641 19.4097 34.2773 19.7126C34.3905 20.0161 34.5514 20.2727 34.7607 20.4829C34.9694 20.6931 35.2218 20.8538 35.5172 20.9655C35.8127 21.0772 36.1414 21.1331 36.5028 21.1331C36.8678 21.1331 37.1975 21.0772 37.493 20.9655C37.7884 20.8538 38.0403 20.6931 38.2474 20.4829C38.4551 20.2727 38.6156 20.0161 38.7288 19.7126C38.8415 19.4097 38.8981 19.0667 38.8981 18.6841Z" fill="#0B907B"/>
<path d="M42.0011 21.0894H44.9245V21.7986H41.0862V15.5655H42.0011V21.0894Z" fill="#0B907B"/>
</svg>
